<svg width="47" height="43" viewBox="0 0 47 43" fill="none" xmlns="http://www.w3.org/2000/svg">
<path d="M8.8196 9.5387L1.28014 12.9552C1.36275 13.0858 1.44059 13.2183 1.51366 13.3528L8.425 10.2214L9.13836 17.3253L9.59644 17.2787L8.9796 10.551L8.8196 9.5387Z" fill="#2F2616" stroke="#2F2616"/>
<path d="M25.4133 1.17578C23.4849 1.17578 21.6191 1.44812 19.8505 1.95465C19.8905 2.00322 19.9287 2.05352 19.9669 2.10209C21.699 1.61292 23.5266 1.34925 25.4133 1.34925C36.4782 1.34925 45.4791 10.3366 45.4791 21.3846C45.4791 32.4327 36.4782 41.42 25.4133 41.42C14.3485 41.42 5.34756 32.4327 5.34756 21.3846C5.34756 17.7332 6.33434 14.3072 8.05253 11.3565C8.00562 11.3218 7.96045 11.2854 7.91355 11.249C6.17451 14.2309 5.17383 17.6933 5.17383 21.3846C5.17383 32.5281 14.2529 41.5935 25.4133 41.5935C36.5737 41.5935 45.6528 32.5281 45.6528 21.3846C45.6528 10.2411 36.5737 1.17578 25.4133 1.17578Z" fill="#2F2616" stroke="#2F2616" stroke-width="0.754901"/>
<path d="M25.4132 41.7664C14.1573 41.7664 5 32.623 5 21.3841C5 17.795 5.95551 14.2598 7.76404 11.1599L7.86654 10.9847L8.02463 11.1131C8.06807 11.1478 8.11324 11.1825 8.15841 11.2172L8.28175 11.3091L8.20358 11.4427C6.45064 14.4575 5.52293 17.8957 5.52293 21.3841C5.52293 32.3368 14.4457 41.246 25.415 41.246C36.3843 41.246 45.307 32.3368 45.307 21.3841C45.307 10.4314 36.3825 1.52213 25.4132 1.52213C23.5839 1.52213 21.7667 1.77366 20.0137 2.26804L19.8991 2.301L19.8278 2.20559C19.7913 2.15702 19.7549 2.11019 19.7149 2.06335L19.5481 1.85866L19.8018 1.7858C21.6207 1.2654 23.5074 1 25.4115 1C36.6674 1 45.8247 10.1434 45.8247 21.3823C45.8247 32.6212 36.6674 41.7647 25.4115 41.7647L25.4132 41.7664Z" fill="#2F2616" stroke="#2F2616" stroke-width="0.754901"/>
<path d="M16.3306 26.5145C15.8459 26.5145 15.3953 26.4261 14.9786 26.2495C14.5618 26.0683 14.2018 25.8147 13.8983 25.4885C13.5993 25.1579 13.3797 24.7661 13.2393 24.3132L14.4011 23.9803C14.5505 24.4332 14.7996 24.7774 15.1484 25.013C15.4972 25.2485 15.889 25.364 16.3238 25.3595C16.7224 25.3504 17.0666 25.2598 17.3565 25.0877C17.6509 24.911 17.8774 24.671 18.0359 24.3675C18.199 24.064 18.2805 23.713 18.2805 23.3144C18.2805 22.7075 18.0993 22.216 17.737 21.8401C17.3746 21.4596 16.899 21.2694 16.3102 21.2694C16.1471 21.2694 15.975 21.292 15.7938 21.3373C15.6172 21.3826 15.4519 21.446 15.2979 21.5276L14.7136 20.5696L18.3416 17.2881L18.4979 17.6957H13.6265V16.5407H19.3947V17.7025L16.3034 20.6647L16.2898 20.2367C16.9375 20.1914 17.5037 20.2978 17.9883 20.556C18.473 20.8142 18.8489 21.1833 19.1162 21.6635C19.3879 22.1436 19.5238 22.6939 19.5238 23.3144C19.5238 23.9395 19.3834 24.4921 19.1026 24.9722C18.8218 25.4523 18.4413 25.8305 17.9612 26.1068C17.4811 26.3786 16.9375 26.5145 16.3306 26.5145ZM24.6262 26.528C24.0057 26.528 23.4417 26.3786 22.9345 26.0796C22.4317 25.7807 22.0308 25.373 21.7319 24.8567C21.4375 24.3358 21.2903 23.7493 21.2903 23.097V19.8426C21.2903 19.1587 21.4375 18.554 21.7319 18.0286C22.0308 17.4987 22.4385 17.0865 22.9548 16.7921C23.4757 16.4931 24.0691 16.3437 24.7349 16.3437C25.2739 16.3437 25.7744 16.4546 26.2364 16.6766C26.7029 16.894 27.0947 17.2088 27.4118 17.621L26.5082 18.4227C26.3134 18.1373 26.0597 17.9108 25.7472 17.7433C25.4347 17.5757 25.0972 17.4919 24.7349 17.4919C24.3046 17.4919 23.9219 17.5961 23.5867 17.8044C23.256 18.0082 22.9956 18.28 22.8054 18.6197C22.6151 18.9549 22.52 19.3172 22.52 19.7068V21.6703L22.255 21.3713C22.5404 20.9637 22.9027 20.6375 23.3421 20.393C23.7815 20.1484 24.257 20.0261 24.7689 20.0261C25.3758 20.0261 25.9193 20.1688 26.3995 20.4541C26.8841 20.7395 27.2646 21.1267 27.5409 21.6159C27.8217 22.1005 27.9621 22.6463 27.9621 23.2533C27.9621 23.8602 27.8104 24.4105 27.5069 24.9042C27.2034 25.398 26.798 25.792 26.2907 26.0864C25.788 26.3808 25.2331 26.528 24.6262 26.528ZM24.6262 25.3595C25.0157 25.3595 25.3713 25.2666 25.6929 25.0809C26.0145 24.8907 26.2681 24.637 26.4538 24.32C26.644 23.9984 26.7392 23.6428 26.7392 23.2533C26.7392 22.8638 26.644 22.5082 26.4538 22.1866C26.2681 21.865 26.0145 21.6114 25.6929 21.4257C25.3758 21.2354 25.0225 21.1403 24.633 21.1403C24.2435 21.1403 23.8879 21.2354 23.5663 21.4257C23.2492 21.6114 22.9956 21.865 22.8054 22.1866C22.6151 22.5082 22.52 22.8638 22.52 23.2533C22.52 23.6383 22.6129 23.9916 22.7986 24.3132C22.9888 24.6302 23.2425 24.8839 23.5595 25.0741C23.8811 25.2643 24.2367 25.3595 24.6262 25.3595ZM33.0318 26.528C32.3977 26.528 31.8315 26.3854 31.3332 26.1C30.8395 25.8101 30.4478 25.4183 30.1579 24.9246C29.8725 24.4264 29.7298 23.8602 29.7298 23.2261V19.6388C29.7298 19.0047 29.8725 18.4385 30.1579 17.9403C30.4478 17.4421 30.8395 17.0503 31.3332 16.7649C31.8315 16.4796 32.3977 16.3369 33.0318 16.3369C33.6659 16.3369 34.2321 16.4796 34.7303 16.7649C35.2285 17.0503 35.6203 17.4421 35.9057 17.9403C36.191 18.4385 36.3337 19.0047 36.3337 19.6388V23.2261C36.3337 23.8602 36.191 24.4264 35.9057 24.9246C35.6203 25.4183 35.2285 25.8101 34.7303 26.1C34.2321 26.3854 33.6659 26.528 33.0318 26.528ZM33.0318 25.3662C33.4168 25.3662 33.7655 25.2734 34.0781 25.0877C34.3906 24.902 34.6397 24.6529 34.8254 24.3403C35.0111 24.0233 35.104 23.6745 35.104 23.294V19.5641C35.104 19.1791 35.0111 18.8303 34.8254 18.5178C34.6397 18.2053 34.3906 17.9561 34.0781 17.7704C33.7655 17.5847 33.4168 17.4919 33.0318 17.4919C32.6513 17.4919 32.3025 17.5847 31.9855 17.7704C31.673 17.9561 31.4238 18.2053 31.2381 18.5178C31.0524 18.8303 30.9596 19.1791 30.9596 19.5641V23.294C30.9596 23.6745 31.0524 24.0233 31.2381 24.3403C31.4238 24.6529 31.673 24.902 31.9855 25.0877C32.3025 25.2734 32.6513 25.3662 33.0318 25.3662ZM40.1381 21.2286C39.6897 21.2286 39.2798 21.1199 38.9084 20.9025C38.537 20.6806 38.2403 20.3862 38.0183 20.0193C37.8009 19.6479 37.6922 19.2357 37.6922 18.7828C37.6922 18.3389 37.8055 17.9312 38.0319 17.5598C38.2584 17.1884 38.5573 16.8917 38.9287 16.6698C39.3002 16.4478 39.7033 16.3369 40.1381 16.3369C40.5865 16.3369 40.9942 16.4478 41.361 16.6698C41.7324 16.8872 42.0291 17.1816 42.2511 17.553C42.473 17.9199 42.584 18.3298 42.584 18.7828C42.584 19.2357 42.473 19.6479 42.2511 20.0193C42.0291 20.3862 41.7324 20.6806 41.361 20.9025C40.9942 21.1199 40.5865 21.2286 40.1381 21.2286ZM40.1381 20.162C40.3872 20.162 40.6159 20.0985 40.8243 19.9717C41.0372 19.8449 41.2048 19.6773 41.3271 19.469C41.4539 19.2606 41.5173 19.0319 41.5173 18.7828C41.5173 18.5336 41.4539 18.3049 41.3271 18.0966C41.2048 17.8837 41.0372 17.7161 40.8243 17.5938C40.6159 17.467 40.3872 17.4036 40.1381 17.4036C39.889 17.4036 39.6602 17.467 39.4519 17.5938C39.2435 17.7161 39.076 17.8837 38.9491 18.0966C38.8223 18.3049 38.7589 18.5336 38.7589 18.7828C38.7589 19.0319 38.8223 19.2606 38.9491 19.469C39.076 19.6773 39.2435 19.8449 39.4519 19.9717C39.6602 20.0985 39.889 20.162 40.1381 20.162Z" fill="#2F2616"/>
</svg>
