<svg width="45" height="45" viewBox="0 0 45 45" fill="none" xmlns="http://www.w3.org/2000/svg">
<path d="M10.1705 1.80005C5.5479 1.80005 1.7998 5.54814 1.7998 10.1708V34.9207C1.7998 39.5434 5.5479 43.2897 10.1705 43.2897H34.9205C39.5431 43.2897 43.2895 39.5434 43.2895 34.9207V10.1602V10.1497C43.1892 5.53787 39.4638 1.80005 34.9205 1.80005H10.1705ZM10.1705 3.60005H34.9205C38.4772 3.60005 41.4097 6.52187 41.4895 10.1901V34.9207C41.4895 38.5781 38.5779 41.4897 34.9205 41.4897H29.6998V26.1H34.0627L35.2615 18.9H29.6998V17.1C29.6998 16.605 29.7491 16.5652 29.9266 16.4514C30.104 16.3376 30.6262 16.2 31.4998 16.2H35.0998V10.1444L34.4758 9.94399C34.4758 9.94399 31.6167 9.00005 28.7998 9.00005C26.1865 9.00005 24.2618 9.85815 23.1115 11.3696C21.9612 12.881 21.5998 14.8829 21.5998 17.1V18.9H18.8998V26.1H21.5998V41.4897H10.1705C6.51312 41.4897 3.5998 38.5781 3.5998 34.9207V10.1708C3.5998 6.51336 6.51312 3.60005 10.1705 3.60005ZM28.7998 10.8C30.7516 10.8 32.5569 11.2839 33.2998 11.4961V14.4H31.4998C30.4834 14.4 29.6545 14.4874 28.9545 14.9362C28.2545 15.3849 27.8998 16.245 27.8998 17.1V20.7H33.1381L32.5369 24.3H27.8998V41.4897H23.3998V24.3H20.6998V20.7H23.3998V17.1C23.3998 15.0872 23.7594 13.4905 24.5441 12.4594C25.3288 11.4284 26.5531 10.8 28.7998 10.8Z" fill="#2F2616" stroke="#2F2616" stroke-width="0.5"/>
</svg>
