<svg width="46" height="47" viewBox="0 0 46 47" fill="none" xmlns="http://www.w3.org/2000/svg">
<path d="M2.07031 15.0398C2.07031 8.44043 7.44092 3.06982 14.0403 3.06982H30.9603C37.5597 3.06982 42.9303 8.44043 42.9303 15.0398V31.9598C42.9303 38.5592 37.5597 43.9298 30.9603 43.9298H14.0403C7.44092 43.9298 2.07031 38.5592 2.07031 31.9598V15.0398ZM30.9603 4.44982H14.0403C8.18095 4.44982 3.45031 9.18046 3.45031 15.0398V31.9598C3.45031 37.8192 8.18095 42.5498 14.0403 42.5498H30.9603C36.8197 42.5498 41.5503 37.8192 41.5503 31.9598V15.0398C41.5503 9.18046 36.8197 4.44982 30.9603 4.44982ZM32.6277 11.0672C32.9334 10.7616 33.348 10.5898 33.7803 10.5898C34.2126 10.5898 34.6272 10.7616 34.9329 11.0672C35.2386 11.3729 35.4103 11.7875 35.4103 12.2198C35.4103 12.6521 35.2386 13.0667 34.9329 13.3724C34.6272 13.6781 34.2126 13.8498 33.7803 13.8498C33.348 13.8498 32.9334 13.6781 32.6277 13.3724C32.322 13.0667 32.1503 12.6521 32.1503 12.2198C32.1503 11.7875 32.322 11.3729 32.6277 11.0672ZM12.4103 23.4998C12.4103 17.9384 16.9389 13.4098 22.5003 13.4098C28.0617 13.4098 32.5903 17.9384 32.5903 23.4998C32.5903 29.0612 28.0617 33.5898 22.5003 33.5898C16.9389 33.5898 12.4103 29.0612 12.4103 23.4998ZM31.2103 23.4998C31.2103 18.6783 27.3218 14.7898 22.5003 14.7898C17.6788 14.7898 13.7903 18.6783 13.7903 23.4998C13.7903 28.3214 17.6788 32.2098 22.5003 32.2098C27.3218 32.2098 31.2103 28.3214 31.2103 23.4998Z" fill="#2F2616" stroke="#2F2616" stroke-width="0.5"/>
</svg>
