<svg width="133" height="99" viewBox="0 0 133 99" fill="none" xmlns="http://www.w3.org/2000/svg">
<path d="M114.899 4.49531C114.353 4.27475 113.418 3.84556 112.45 3.52962C111.742 3.29714 110.996 3.08255 110.272 3.10043C109.851 3.11235 109.391 3.55347 109.029 3.89921C108.683 4.23302 108.408 4.56684 107.986 4.084C107.564 3.60712 106.624 3.32695 107.154 2.40299C108.386 0.233178 109.975 -0.440417 112.304 0.412009C113.066 0.692177 113.796 1.06176 114.563 1.31808C115.45 1.61017 116.239 1.38366 116.785 0.519307C117.201 -0.142366 117.596 -0.160249 118.093 0.400087C118.249 0.578918 118.552 0.626606 118.682 0.823319C118.849 1.07964 119.055 1.47307 118.99 1.72343C118.617 3.13023 116.763 4.50723 114.904 4.49531H114.899Z" fill="#2F2616"/>
<path d="M30.4668 20.4292C29.2129 20.8226 29.2129 22.0029 28.8292 22.8196C27.0619 26.581 25.381 30.3841 23.6731 34.1813C23.4245 34.7357 23.2462 35.3497 22.9381 35.8563C22.5544 36.4822 21.8085 36.375 21.5005 35.7133C19.9818 32.4288 18.4414 29.1621 16.9497 25.8657C16.2471 24.3098 15.6526 22.6944 14.9554 21.1267C14.8365 20.8644 14.4744 20.7273 14.2258 20.5365C14.0691 20.7869 13.8096 21.0253 13.7772 21.2936C13.334 25.0252 12.9341 28.7627 12.4963 32.4943C12.372 33.5435 12.199 34.5866 11.9612 35.6119C11.8964 35.8861 11.5181 36.2259 11.2586 36.2617C9.10758 36.5121 9.05893 36.4048 9.3616 34.0621C9.9453 29.5496 10.4912 25.0311 11.0478 20.5127C11.4208 17.5024 11.7667 14.492 12.1666 11.4877C12.2044 11.2016 12.5666 10.7187 12.7071 10.7485C13.0638 10.82 13.5286 11.0466 13.6961 11.3685C14.2582 12.4474 14.7068 13.6038 15.2148 14.7245C16.3552 17.258 17.5118 19.7854 18.6522 22.3248C19.6683 24.584 20.6573 26.8552 21.6788 29.1144C21.8031 29.3827 22.0571 29.5794 22.2463 29.8119C22.4949 29.5496 22.8354 29.335 22.9867 29.0131C23.8299 27.1652 24.6135 25.2874 25.4459 23.4276C26.3106 21.4843 27.2294 19.5708 28.0833 17.6216C28.9805 15.5829 29.8074 13.5085 30.7262 11.4817C30.883 11.13 31.3315 10.9393 31.645 10.671C31.845 10.987 32.1801 11.285 32.2233 11.6248C32.8611 16.3936 33.4556 21.1684 34.0717 25.9372C34.45 28.876 34.877 31.8088 35.2337 34.7536C35.4121 36.2021 35.2986 36.2855 33.9906 36.2915C32.4341 36.2975 32.5044 36.2915 32.3044 34.5807C31.899 31.1412 31.4126 27.7195 30.964 24.286C30.8505 23.4038 30.7803 22.5156 30.6776 21.6274C30.6343 21.2518 30.5533 20.8823 30.4722 20.4292H30.4668Z" fill="#2F2616"/>
<path d="M103.473 36.5001C101.619 36.2736 101.543 36.1246 102.332 34.3482C103.656 31.3736 104.997 28.3991 106.288 25.4007C107.515 22.5513 108.683 19.6721 109.893 16.8108C110.661 14.9927 111.455 13.1865 112.255 11.3863C112.671 10.4445 113.433 10.3551 113.882 11.2552C114.525 12.5487 115.044 13.9138 115.628 15.2491C116.271 16.7274 116.936 18.1938 117.563 19.6841C118.66 22.3069 119.719 24.9596 120.827 27.5764C121.859 30.0205 122.929 32.4466 124.005 34.8668C124.518 36.0232 124.421 36.2617 123.281 36.2736C123.129 36.2736 122.978 36.2557 122.832 36.2736C121.692 36.4584 121.07 35.9875 120.627 34.7356C119.892 32.691 118.941 30.7358 118.017 28.7865C117.865 28.4646 117.373 28.1487 117.038 28.1427C114.493 28.0891 111.942 28.1308 109.396 28.0951C108.067 28.0772 107.975 29.3349 107.564 30.2053C106.71 32.0114 106.024 33.919 105.11 35.6834C104.872 36.1424 104.046 36.2319 103.483 36.4882L103.473 36.5001ZM113.077 24.9476C113.077 24.9476 113.077 24.9238 113.077 24.9119C113.796 24.9119 114.514 24.9536 115.233 24.8999C116.033 24.8403 116.255 24.441 115.936 23.666C115.212 21.9373 114.482 20.2086 113.72 18.4978C113.401 17.7765 112.974 17.7586 112.655 18.4501C111.85 20.2027 111.061 21.9731 110.304 23.7554C110.012 24.4469 110.315 24.9178 111.012 24.9417C111.699 24.9655 112.39 24.9417 113.077 24.9417V24.9476Z" fill="#2F2616"/>
<path d="M45.6003 23.505C45.6003 19.6661 45.6003 15.8272 45.6003 11.9883C45.6003 10.6531 45.7354 10.5398 46.9568 10.5398C50.6158 10.5398 54.2747 10.5219 57.9337 10.5637C58.3931 10.5637 59.1876 10.8081 59.2362 11.0704C59.3767 11.8453 59.2741 12.6918 59.1335 13.4846C59.1011 13.6574 58.512 13.7945 58.1823 13.7945C55.5124 13.8184 52.8425 13.8124 50.1726 13.8124C48.6107 13.8124 48.5242 13.9138 48.5242 15.5828C48.5242 16.8764 48.5188 18.164 48.5188 19.4575C48.5188 20.5305 48.762 20.8166 49.7294 20.8226C52.4318 20.8345 55.1287 20.8107 57.831 20.8643C58.2796 20.8762 59.0417 21.1206 59.1065 21.4068C59.2632 22.0982 59.1822 22.9089 59.0038 23.6123C58.9444 23.8448 58.2958 24.0117 57.9175 24.0117C55.3665 24.0415 52.8155 24.0237 50.2699 24.0237C48.5944 24.0237 48.5188 24.1131 48.5242 26.0027C48.535 27.7553 48.5296 29.5138 48.5242 31.2663C48.5242 32.8758 48.6917 33.0665 50.1942 33.0665C52.7452 33.0665 55.2962 33.0486 57.8418 33.0904C58.2742 33.0963 59.0308 33.3169 59.0687 33.5494C59.193 34.3303 59.1335 35.1827 58.9714 35.9576C58.9282 36.1543 58.2364 36.2736 57.8418 36.2795C54.7504 36.3034 51.6643 36.2914 48.5728 36.2914C48.0918 36.2914 47.6108 36.2914 47.1352 36.2914C45.584 36.2974 45.584 36.3034 45.5895 34.6343C45.5895 30.9265 45.5895 27.2188 45.5895 23.511L45.6003 23.505Z" fill="#2F2616"/>
<path d="M69.3697 23.5051C69.3697 19.6364 69.3697 15.7677 69.3697 11.899C69.3697 10.7008 69.5372 10.5279 70.6289 10.5279C72.3422 10.5279 72.3747 10.5637 72.3747 12.4712C72.3747 18.158 72.3747 23.8448 72.3692 29.5317C72.3692 30.2231 72.3098 30.9206 72.299 31.6121C72.2828 32.6791 72.6773 33.1142 73.6502 33.1142C75.6283 33.1142 77.6064 33.0785 79.5845 33.1321C80.0385 33.144 80.8059 33.3944 80.8654 33.6686C81.0113 34.4018 80.8816 35.2125 80.7735 35.9815C80.7573 36.1126 80.3195 36.2497 80.0763 36.2557C76.7795 36.2736 73.4826 36.2557 70.1858 36.2795C69.3697 36.2855 69.3643 35.7252 69.3643 35.0993C69.3643 31.2306 69.3643 27.3619 69.3643 23.4931L69.3697 23.5051Z" fill="#2F2616"/>
<path d="M89.8366 23.4872C89.8366 19.6185 89.8528 15.7498 89.8204 11.8811C89.815 10.9929 90.1176 10.5816 90.8905 10.5518C91.1878 10.5398 91.4904 10.5398 91.7877 10.5339C92.5768 10.5219 92.9064 10.9511 92.901 11.8274C92.8794 16.4234 92.8794 21.0193 92.874 25.6153C92.874 28.7567 92.847 31.8982 92.8956 35.0396C92.9119 35.9934 92.6254 36.3213 91.7607 36.3034C89.842 36.2616 89.8474 36.2974 89.8528 34.2051C89.8528 30.6344 89.8528 27.0638 89.8528 23.4872H89.8312H89.8366Z" fill="#2F2616"/>
<path d="M112.678 64.4692C109.381 64.7553 106.127 61.2622 106.197 57.3458C106.284 52.4995 109.646 50.0435 112.802 50.0316C116.077 50.0197 119.336 53.036 119.25 57.5008C119.179 60.9343 116.461 64.7613 112.683 64.4633L112.678 64.4692ZM112.634 62.7763C115.812 62.8895 117.693 60.2727 117.742 57.322C117.796 54.2282 115.439 51.6709 112.613 51.6769C110.062 51.6769 107.57 54.097 107.738 57.3637C107.905 60.6363 109.208 62.5736 112.629 62.7822L112.634 62.7763Z" fill="#2F2616"/>
<path d="M122.946 50.6754C123.54 51.3192 124.178 51.9212 124.724 52.6127C126.421 54.7825 128.08 57 129.772 59.1758C129.945 59.3964 130.258 59.4798 130.507 59.6288C130.604 59.3129 130.793 58.997 130.793 58.681C130.81 56.2966 130.793 53.9182 130.777 51.5338C130.777 50.9317 130.869 50.5025 131.561 50.5204C132.231 50.5383 132.328 50.9496 132.323 51.5636C132.312 55.4323 132.328 59.307 132.312 63.1757C132.312 63.4558 132.117 63.73 132.015 64.0102C131.793 63.8731 131.512 63.7956 131.355 63.5989C129.221 60.8807 127.107 58.1386 124.967 55.4204C124.805 55.2177 124.47 55.1819 124.216 55.0627C124.129 55.319 123.973 55.5754 123.978 55.8257C123.978 58.2042 124.01 60.5886 124.032 62.967C124.038 63.6347 123.886 64.2129 123.167 64.1771C122.476 64.1473 122.557 63.5333 122.557 62.9909C122.567 59.3844 122.567 55.778 122.573 52.1716C122.573 51.7484 122.605 51.3251 122.627 50.9019C122.73 50.8185 122.838 50.741 122.94 50.6575L122.946 50.6754Z" fill="#2F2616"/>
<path d="M103.879 64.0997C102.868 64.4216 102.236 64.3143 101.684 63.4321C100.625 61.757 99.4685 60.1654 98.3173 58.5619C98.166 58.3473 97.7444 58.1327 97.5823 58.2162C97.3607 58.3354 97.1499 58.7407 97.1445 59.0328C97.1229 60.3562 97.177 61.6795 97.204 62.9969C97.2148 63.5334 97.2688 64.1712 96.5986 64.213C95.869 64.2547 95.8528 63.5513 95.8474 63.0029C95.8204 59.7601 95.8258 56.5173 95.8204 53.2745C95.8204 52.6486 95.815 52.0167 95.8096 51.3908C95.8096 50.7828 96.0528 50.4847 96.6311 50.4967C97.9822 50.5265 99.3334 50.4967 100.679 50.5503C101.928 50.604 103.727 51.9452 103.798 53.9242C103.852 55.4085 103.187 57.0121 101.452 57.5962C99.7334 58.1745 99.7442 58.1685 100.939 59.7541C101.76 60.845 102.544 61.9716 103.327 63.0923C103.522 63.3665 103.652 63.6944 103.873 64.1057L103.879 64.0997ZM97.1932 54.1806C97.1932 54.574 97.0959 55.0151 97.2202 55.3549C97.3499 55.7185 97.6688 56.2252 97.9444 56.255C98.7929 56.3563 99.6793 56.3563 100.522 56.2192C101.517 56.0583 101.976 55.3251 101.993 54.1984C102.009 52.9764 101.657 52.4042 100.576 52.1777C99.8198 52.0167 99.0416 51.975 98.2687 51.9511C97.5391 51.9273 97.1824 52.3863 97.1878 53.191C97.1878 53.5189 97.1878 53.8467 97.1878 54.1806H97.1932Z" fill="#2F2616"/>
<path d="M46.8483 57.3935C46.8483 55.4383 46.8591 53.4891 46.8429 51.5339C46.8375 50.8483 47.0104 50.4907 47.7076 50.5026C49.5668 50.5324 51.426 50.5145 53.2852 50.5145C53.7176 50.5145 54.1608 50.5145 54.1878 51.1881C54.2149 51.8975 53.7825 51.9929 53.2961 51.9929C52.0368 51.9929 50.7775 52.0227 49.5182 51.975C48.6481 51.9392 48.3508 52.3744 48.3616 53.2864C48.3994 56.0881 48.0535 56.0106 50.7721 55.9748C51.6422 55.9629 52.5124 55.9867 53.3825 55.9927C53.8798 55.9927 54.177 56.2311 54.1824 56.8213C54.1824 57.4889 53.7771 57.5307 53.3231 57.5247C52.0043 57.5247 50.6802 57.5605 49.3669 57.5128C48.5994 57.483 48.34 57.8764 48.3454 58.6334C48.3508 59.5574 48.3616 60.4873 48.3616 61.4113C48.3616 62.1981 48.7237 62.5439 49.4263 62.5439C50.6856 62.5379 51.9449 62.5558 53.2042 62.5618C53.7014 62.5618 54.1932 62.5439 54.1878 63.3486C54.1878 64.046 53.8527 64.2666 53.2798 64.2606C51.3882 64.2606 49.502 64.2606 47.6104 64.2845C46.9186 64.2964 46.8429 63.8434 46.8429 63.2532C46.8483 61.298 46.8429 59.3488 46.8429 57.3935H46.8483Z" fill="#2F2616"/>
<path d="M81.0059 64.189C81.2545 63.6406 81.4598 63.2233 81.6382 62.8001C82.3786 61.0535 83.0975 59.2891 83.8595 57.5485C84.7891 55.4204 85.7511 53.3102 86.7186 51.2C86.8159 50.9854 87.0591 50.6635 87.1618 50.6933C87.378 50.7529 87.6212 50.9794 87.7238 51.2119C89.075 54.252 90.41 57.2981 91.7287 60.3561C92.1503 61.3337 92.5448 62.3232 92.8853 63.3366C92.961 63.5631 92.7826 63.8969 92.7232 64.1831C92.3286 64.04 91.7503 64.034 91.572 63.736C91.0261 62.8418 90.5883 61.8583 90.1992 60.8687C89.8857 60.0759 89.4533 59.6408 88.6426 59.6706C87.686 59.7063 86.724 59.6706 85.7674 59.6885C85.0269 59.7004 84.4919 59.9448 84.2162 60.8568C83.946 61.751 83.4542 62.5676 83.0272 63.3962C82.6327 64.1592 81.9787 64.2904 81.0059 64.1831V64.189ZM87.1347 58.1505C87.1347 58.1505 87.1347 58.1624 87.1347 58.1684C87.405 58.1684 87.6752 58.1863 87.9454 58.1684C88.648 58.1088 88.9075 57.6558 88.6318 56.9583C88.3562 56.2668 88.0914 55.5694 87.7671 54.9137C87.659 54.6931 87.3779 54.4845 87.1564 54.4547C87.0212 54.4368 86.7942 54.7289 86.6916 54.9316C86.3781 55.5634 86.1403 56.237 85.816 56.857C85.3998 57.6677 85.5728 58.0849 86.4213 58.1505C86.6591 58.1684 86.9023 58.1505 87.1401 58.1505H87.1347Z" fill="#2F2616"/>
<path d="M10.8694 57.2683C10.8694 55.4144 10.8694 53.5605 10.8694 51.7126C10.8694 51.1523 10.81 50.5085 11.599 50.5502C12.3611 50.5919 12.2854 51.2178 12.2854 51.7841C12.2854 52.8452 12.2692 53.9003 12.2638 54.9614C12.2638 55.7244 12.5935 56.1416 13.2961 56.1476C14.6148 56.1595 15.9336 56.1953 17.2523 56.1595C17.9874 56.1416 18.3927 55.7244 18.3333 54.8183C18.2684 53.799 18.2738 52.7677 18.2684 51.7424C18.2684 51.1523 18.1819 50.4429 19.0196 50.4966C19.7547 50.5383 19.7114 51.1642 19.7114 51.7424C19.7114 55.3488 19.7114 58.9552 19.706 62.5617C19.706 62.7286 19.706 62.8895 19.706 63.0564C19.7114 63.6227 19.652 64.1831 19.0088 64.2188C18.3279 64.2546 18.2846 63.6645 18.2846 63.1101C18.2846 61.8225 18.29 60.5289 18.3279 59.2414C18.3657 57.924 18.0738 57.5663 16.901 57.5723C15.7606 57.5782 14.6203 57.5723 13.4853 57.5842C12.5557 57.5961 12.2692 57.9299 12.2692 58.9791C12.2692 60.2667 12.28 61.5602 12.3017 62.8478C12.3125 63.5214 12.28 64.2069 11.4856 64.195C10.7235 64.189 10.8532 63.4558 10.8478 62.9193C10.8316 61.0356 10.8424 59.146 10.8424 57.2623H10.8586L10.8694 57.2683Z" fill="#2F2616"/>
<path d="M43.8004 50.6694C43.0492 51.4026 42.4222 51.9928 41.8169 52.6068C40.7576 53.6738 39.7199 54.7706 38.639 55.8198C38.1039 56.3384 38.0499 56.8093 38.5471 57.3815C40.2387 59.3427 41.925 61.3099 43.6059 63.277C43.795 63.4975 43.9626 63.7479 44.2058 64.0758C43.26 64.499 42.5465 64.3261 41.9574 63.6704C40.8441 62.4246 39.7685 61.1429 38.6768 59.8732C38.5093 59.6825 38.3795 59.4381 38.1796 59.301C37.9742 59.1579 37.6067 58.9612 37.504 59.0566C37.3094 59.2295 37.1635 59.5931 37.1689 59.8792C37.1689 60.9641 37.2338 62.055 37.2824 63.1399C37.3094 63.7479 37.1419 64.201 36.5203 64.2367C35.888 64.2725 35.6934 63.8373 35.6934 63.2233C35.6934 59.2593 35.6934 55.2892 35.6826 51.3251C35.6826 50.729 35.915 50.4787 36.4393 50.4966C36.9473 50.5085 37.331 50.6515 37.3148 51.3311C37.2932 52.0583 37.2554 52.7856 37.2878 53.5069C37.304 53.8228 37.477 54.1328 37.5742 54.4487C37.8607 54.3295 38.2012 54.2818 38.4174 54.0732C39.3146 53.1969 40.1901 52.2968 41.0332 51.3609C41.7575 50.5562 42.579 50.3118 43.8058 50.6754L43.8004 50.6694Z" fill="#2F2616"/>
<path d="M78.4605 50.7469C77.866 51.2834 77.3958 51.6649 76.9689 52.1061C75.8069 53.2983 74.6611 54.5024 73.5261 55.7184C72.8343 56.4576 72.8289 56.8868 73.4829 57.6379C75.1745 59.5871 76.8824 61.5185 78.5794 63.4678C78.7092 63.6168 78.7632 63.8433 78.8551 64.04C77.7471 64.5527 76.8337 64.1652 75.9636 62.9253C75.5474 62.3352 75.0826 61.7927 74.6286 61.2383C74.0666 60.5528 73.5099 59.8673 72.9154 59.2175C72.7532 59.0387 72.4127 58.8718 72.2398 58.9493C72.0722 59.0268 71.9263 59.4083 71.9209 59.6587C71.9101 60.8151 71.9263 61.9715 71.9912 63.122C72.0236 63.7777 71.7966 64.1652 71.2237 64.2248C70.5751 64.2904 70.5211 63.742 70.5211 63.2234C70.5157 59.2891 70.5157 55.3548 70.5049 51.4205C70.5049 50.8781 70.64 50.5204 71.2075 50.5264C71.7155 50.5323 72.0074 50.7589 71.9912 51.355C71.9695 52.112 71.9155 52.875 71.9317 53.6321C71.9371 53.9242 72.0668 54.413 72.2182 54.4547C72.4722 54.5262 72.8613 54.3951 73.0667 54.1924C74.1044 53.1612 75.0988 52.0762 76.1041 51.0092C76.6013 50.4847 77.1364 50.3952 78.4551 50.7589L78.4605 50.7469Z" fill="#2F2616"/>
<path d="M23.625 56.2549C23.625 54.6693 23.625 53.0837 23.625 51.498C23.625 50.9437 23.7007 50.5145 24.3492 50.5383C24.9545 50.5621 25.0897 50.9377 25.0843 51.5159C25.068 54.2937 25.0843 57.0716 25.0572 59.8435C25.0464 61.0595 25.2842 62.1325 26.4246 62.5676C27.511 62.9849 28.6946 63.0624 29.5053 62.0073C29.943 61.435 30.2079 60.5409 30.2349 59.7779C30.3268 57.2027 30.2835 54.6216 30.2889 52.0464C30.2889 51.7842 30.1971 51.4563 30.3052 51.2655C30.4835 50.9615 30.77 50.6098 31.0564 50.5502C31.2294 50.5145 31.6888 50.9794 31.6888 51.2238C31.7104 54.562 31.7104 57.9002 31.6293 61.2324C31.6023 62.3948 30.1754 64.0698 29.0999 64.3023C27.311 64.6838 25.5977 64.5288 24.4195 62.7524C24.0412 62.1802 23.7547 61.4172 23.7007 60.7138C23.5926 59.2354 23.6682 57.7452 23.6682 56.2549C23.6574 56.2549 23.6466 56.2549 23.6304 56.2549H23.625Z" fill="#2F2616"/>
<path d="M0.0115915 57.2444C0.0115915 55.3905 0.0386148 53.5426 0.000782175 51.6947C-0.0154318 50.8661 0.216969 50.4667 1.02226 50.5025C2.30857 50.5621 3.60029 50.5025 4.88119 50.58C6.61609 50.6813 7.91861 52.112 7.98346 53.8943C8.06453 56.0701 7.15115 57.3398 5.22168 57.6676C4.42179 57.8047 3.6165 57.8763 2.8112 57.9418C1.71946 58.0372 1.57354 58.2041 1.59516 59.3784C1.61678 60.5706 1.62218 61.7569 1.62758 62.9491C1.62758 63.5988 1.63299 64.2724 0.789862 64.2605C-0.0154318 64.2546 0.0278055 63.6048 0.0278055 62.9968C0.0278055 61.0773 0.0278055 59.1638 0.0278055 57.2444H0.0115915ZM3.42734 56.3622C3.87592 56.3324 4.32991 56.3622 4.76769 56.2728C6.14588 56.0045 7.01063 54.1387 6.13507 53.0598C5.66487 52.4756 4.76769 52.1477 4.01644 52.0285C1.82756 51.6708 1.6492 51.8974 1.63299 54.2818C1.62218 55.629 2.2203 56.3224 3.42734 56.3622Z" fill="#2F2616"/>
<path d="M58.9494 58.1445C58.9494 56.5231 58.9224 54.9017 58.9602 53.2803C58.9818 52.3623 58.6684 51.9033 57.8144 51.945C57.4577 51.9629 57.0686 52.0165 56.7443 51.8973C56.5011 51.8079 56.1714 51.4741 56.166 51.2476C56.166 51.0151 56.5065 50.574 56.7065 50.568C58.6251 50.5144 60.5438 50.5144 62.4624 50.5561C62.6732 50.5561 63.0624 50.9495 63.0407 51.1105C63.0083 51.4026 62.7705 51.7602 62.5327 51.8914C62.2625 52.0404 61.8841 52.0166 61.5599 51.9927C60.6951 51.9212 60.3708 52.3861 60.3762 53.2862C60.3925 56.3621 60.3871 59.438 60.3871 62.5139C60.3871 62.7762 60.4681 63.0981 60.3654 63.2948C60.1871 63.6465 59.8898 63.9207 59.6412 64.2247C59.4088 63.9147 58.9873 63.6107 58.9764 63.2948C58.9116 61.578 58.944 59.8553 58.944 58.1385L58.9494 58.1445Z" fill="#2F2616"/>
<path d="M95.2366 78.5075H37.25C37.25 78.4359 37.25 78.3644 37.25 78.2929H95.2366C95.2366 78.3644 95.2366 78.4359 95.2366 78.5075Z" fill="#2F2616"/>
<path d="M71.6074 91.6277C73.0289 93.416 74.4503 95.2043 76.0393 97.2072C76.6932 95.246 75.9906 93.3742 76.45 91.6754C76.5365 91.6754 76.6176 91.6873 76.704 91.6873V98.6796C76.3365 98.3517 76.0663 98.1788 75.8717 97.9285C74.8611 96.6707 73.8882 95.3831 72.8613 94.1492C72.6776 93.9286 72.3155 93.8809 72.0398 93.7498C71.9696 94.0478 71.829 94.3459 71.8344 94.6439C71.8398 95.699 71.9209 96.7542 71.9209 97.8033C71.9209 98.1431 71.775 98.4888 71.4993 98.8047C71.1156 96.4263 71.1751 94.0657 71.321 91.7052C71.4183 91.6754 71.521 91.6515 71.6183 91.6217L71.6074 91.6277Z" fill="#2F2616"/>
<path d="M38.4007 98.8881C38.1196 98.5364 37.8224 98.2026 37.5575 97.833C37.3143 97.4992 37.1576 97.076 36.8765 96.7898C36.4604 96.3726 35.974 96.0387 35.5146 95.6692C35.4443 96.2056 35.3632 96.7481 35.3146 97.2846C35.266 97.7794 35.2443 98.2801 35.2119 98.7748C35.1038 98.7808 34.9903 98.7868 34.8822 98.7927C34.8282 98.5424 34.7363 98.292 34.7309 98.0416C34.7147 96.158 34.7417 94.2743 34.7093 92.3906C34.6985 91.6216 34.9849 91.2938 35.6659 91.3295C36.2928 91.3653 36.9198 91.3891 37.5467 91.4189C38.4169 91.4607 38.8655 92.2058 39.033 92.9152C39.1573 93.4278 38.8114 94.1312 38.5466 94.6796C38.4277 94.924 38.0115 95.0432 37.7089 95.1148C36.9468 95.2936 36.7522 95.7049 37.2062 96.4083C37.5521 96.9388 37.9899 97.3979 38.352 97.9224C38.5033 98.143 38.5466 98.453 38.6439 98.7212C38.5628 98.7748 38.4763 98.8285 38.3953 98.8821L38.4007 98.8881ZM36.6874 91.9376C35.4443 91.9376 35.266 92.1223 35.2714 93.3444C35.2768 94.4948 35.6065 94.8406 36.6766 94.8287C37.7251 94.8167 38.4331 94.1968 38.4331 93.3026C38.4331 92.4681 37.7467 91.9376 36.6874 91.9376Z" fill="#2F2616"/>
<path d="M56.7446 95.1148C56.7446 94.1611 56.7013 93.1954 56.7662 92.2476C56.7878 91.9376 57.0743 91.4071 57.2688 91.3892C58.901 91.264 60.6089 91.0256 61.825 92.647C62.8735 94.0478 63.014 95.6513 62.2411 97.231C61.6574 98.4232 60.7386 99.1564 59.3875 98.9716C58.7659 98.8882 58.1336 98.918 57.5066 98.918C56.9824 98.918 56.7392 98.6497 56.7446 98.0775C56.75 97.0879 56.7446 96.0984 56.7446 95.1089H56.7392L56.7446 95.1148ZM57.1445 95.1327C57.1445 95.4308 57.1445 95.7288 57.1445 96.0269C57.1391 98.5186 57.485 98.8166 59.7117 98.3994C62.1871 97.9344 62.4897 94.9539 61.425 93.1477C60.7224 91.9615 58.4471 91.6694 57.6472 92.0449C57.4148 92.1522 57.1878 92.5635 57.1607 92.8556C57.0905 93.6067 57.1391 94.3757 57.1391 95.1387L57.1445 95.1327Z" fill="#2F2616"/>
<path d="M68.375 98.9C67.4508 98.9 66.5266 98.9537 65.6132 98.8643C65.3862 98.8404 65.0241 98.3516 65.0133 98.0715C64.9593 96.1222 64.9647 94.1729 64.9971 92.2237C64.9971 91.9554 65.2619 91.4726 65.4241 91.4607C66.4996 91.3951 67.5805 91.4249 68.6615 91.4249C68.6615 91.5561 68.6723 91.6872 68.6777 91.8124C68.0994 91.8481 67.5211 91.9078 66.9428 91.9078C65.8456 91.9078 65.7267 92.0091 65.7213 93.1655C65.7213 94.4591 65.8727 94.6439 66.9698 94.6439C67.4562 94.6439 67.9426 94.6439 68.4291 94.6439L68.4399 95.0969C67.9372 95.0969 67.4346 95.0969 66.932 95.0969C65.8186 95.0969 65.7051 95.2161 65.7051 96.4679C65.7051 96.5037 65.7051 96.5335 65.7051 96.5693C65.7159 98.5006 65.7267 98.5126 67.4292 98.5126C67.7427 98.5126 68.0561 98.5543 68.3696 98.5722C68.3696 98.6795 68.3696 98.7868 68.3696 98.8941L68.375 98.9Z" fill="#2F2616"/>
<path d="M92.4095 91.9257C91.5448 91.9257 90.8854 91.9138 90.2315 91.9257C89.0641 91.9555 88.5128 92.9629 89.0803 94.1253C89.21 94.3936 89.6424 94.5843 89.9558 94.6201C90.626 94.6916 91.307 94.6439 91.9826 94.6439C91.9826 94.793 91.988 94.9479 91.9934 95.097C91.4745 95.097 90.9449 95.0374 90.4314 95.1148C89.9558 95.1864 89.1397 95.3235 89.1019 95.556C88.9668 96.4024 89.0478 97.3085 89.1613 98.1729C89.1776 98.3219 89.718 98.459 90.0207 98.4828C90.653 98.5305 91.2962 98.4947 91.9339 98.4947C91.9339 98.614 91.9339 98.7332 91.9339 98.8524C90.9179 98.8524 89.9018 98.8762 88.8911 98.8226C88.7452 98.8166 88.5074 98.4113 88.502 98.1907C88.4695 96.1759 88.4641 94.1551 88.502 92.1403C88.502 91.884 88.7776 91.425 88.9452 91.4131C89.9829 91.3534 91.026 91.3892 92.0691 91.4131C92.1231 91.4131 92.1717 91.5502 92.4204 91.9197L92.4095 91.9257Z" fill="#2F2616"/>
<path d="M47.643 97.8509C47.8754 98.0118 48.1132 98.1609 48.3402 98.3278C48.8699 98.7152 49.3833 98.7868 49.8968 98.2861C50.4156 97.7794 50.5723 97.1356 50.2535 96.5037C49.9886 95.9791 49.5509 95.5499 49.1509 95.1208C48.8969 94.8525 48.551 94.6856 48.2862 94.4293C47.0431 93.2251 47.2917 91.717 48.832 91.0673C49.5292 90.7752 50.6426 91.5561 50.6426 92.4681C50.4372 92.3489 50.2643 92.2654 50.1075 92.1581C49.432 91.6991 48.6429 91.7408 48.3294 92.2833C47.8862 93.0523 48.324 93.5888 48.7888 94.0776C49.4103 94.7273 50.1508 95.2698 50.6804 95.997C51.529 97.1773 51.4695 97.3263 50.5831 98.4232C49.9184 99.2458 48.0267 99.0193 47.6376 97.8509H47.643Z" fill="#2F2616"/>
<path d="M94.3662 97.8092C94.7391 97.9999 94.9499 98.0417 95.085 98.1788C95.6849 98.7868 96.2849 98.9179 96.8848 98.2086C97.3766 97.6304 97.3766 96.5514 96.8523 95.9434C96.5713 95.6155 96.1876 95.389 95.8849 95.079C95.458 94.632 94.9877 94.2028 94.6797 93.6663C94.123 92.6946 94.4689 91.7647 95.5012 91.1507C96.0471 90.8288 97.1928 91.2461 97.5279 91.9078C97.5874 92.027 97.5496 92.1999 97.5658 92.4681C97.182 92.2654 96.9118 92.0628 96.6091 91.9793C96.0903 91.8422 95.5552 91.6991 95.1931 92.3906C94.8256 93.0881 95.2039 93.5232 95.5877 93.9345C96.1227 94.5068 96.7064 95.0194 97.2469 95.5917C98.1711 96.5633 98.2359 97.4158 97.4955 98.4172C96.8848 99.2458 94.8905 99.0133 94.3662 97.8092Z" fill="#2F2616"/>
<path d="M45.2754 91.9257C44.6214 91.9257 43.9621 91.878 43.3081 91.9435C42.919 91.9793 42.2704 92.1104 42.2218 92.337C42.0812 92.939 42.1461 93.6245 42.2488 94.2564C42.2758 94.4233 42.7298 94.5902 42.9946 94.6081C43.6648 94.6558 44.3404 94.626 45.016 94.626C45.016 94.7691 45.0268 94.9181 45.0322 95.0612C44.5404 95.0731 44.0485 95.0373 43.5621 95.1148C43.0865 95.1863 42.2596 95.2996 42.2218 95.5202C42.0812 96.3666 42.1569 97.2667 42.265 98.1311C42.2866 98.292 42.8163 98.453 43.1189 98.4768C43.7243 98.5305 44.335 98.4947 44.9457 98.4947C44.9457 98.6258 44.9457 98.7629 44.9457 98.8941C43.9891 98.8941 43.0325 98.9179 42.0758 98.8702C41.9245 98.8643 41.6705 98.5364 41.6651 98.3576C41.6218 96.2414 41.6164 94.1253 41.6218 92.0151C41.6218 91.8422 41.7245 91.6216 41.8434 91.5084C42.211 91.1626 44.789 91.2759 45.2808 91.9257H45.2754Z" fill="#2F2616"/>
<path d="M80.2982 92.6709C80.2279 93.1179 80.2657 93.6306 80.0712 94.0002C79.3632 95.3474 79.9955 96.5217 80.6008 97.4993C81.4061 98.7988 83.5031 98.9776 84.7949 98.1312C85.0543 97.9642 85.3461 97.857 85.6866 97.857C85.2867 98.4411 84.8867 98.9717 84.1193 98.9299C83.4059 98.8882 82.687 98.9001 81.9736 98.918C81.071 98.9419 79.4983 97.4456 79.347 96.2236C79.2443 95.3652 79.3037 94.4472 79.4605 93.5948C79.5253 93.2491 80.0225 92.9928 80.3252 92.6947L80.3036 92.6709H80.2982Z" fill="#2F2616"/>
<path d="M54.1335 98.8762C53.2471 98.2205 53.2093 92.1641 54.0578 91.4011C54.2956 93.9286 54.1767 96.3011 54.1335 98.8762Z" fill="#2F2616"/>
<path d="M80.3249 92.7006C80.7194 91.5263 82.5894 90.5308 83.7676 90.9958C84.4865 91.276 85.1296 91.8065 85.8052 92.2238L85.7079 92.4622C85.5728 92.4622 85.4053 92.5218 85.2972 92.4562C83.7785 91.5084 82.2922 91.5323 80.8167 92.5635C80.6762 92.6589 80.4762 92.641 80.2979 92.6768L80.3195 92.7006H80.3249Z" fill="#2F2616"/>
</svg>
