<svg width="140" height="101" viewBox="0 0 140 101" fill="none" xmlns="http://www.w3.org/2000/svg">
<path d="M1.21655 70.1724V57.6593H2.49393V63.2988H9.4109V57.6593H10.6796V70.1724H9.4109V64.5241H2.49393V70.1724H1.21655ZM18.18 70.4331C16.9345 70.4331 15.883 70.1579 15.0256 69.6075C14.1683 69.0514 13.5194 68.2838 13.0792 67.3048C12.6389 66.3257 12.4187 65.1961 12.4187 63.9158C12.4187 62.6355 12.6389 61.5059 13.0792 60.5268C13.5194 59.5478 14.1683 58.7831 15.0256 58.2328C15.883 57.6766 16.9345 57.3986 18.18 57.3986C19.4313 57.3986 20.4827 57.6766 21.3343 58.2328C22.1917 58.7831 22.8405 59.5478 23.2808 60.5268C23.7269 61.5059 23.9499 62.6355 23.9499 63.9158C23.9499 65.1961 23.7269 66.3257 23.2808 67.3048C22.8405 68.2838 22.1917 69.0514 21.3343 69.6075C20.4827 70.1579 19.4313 70.4331 18.18 70.4331ZM18.18 69.2078C19.159 69.2078 19.9758 68.9848 20.6305 68.5387C21.2851 68.0926 21.7746 67.4728 22.099 66.6791C22.4292 65.8797 22.5943 64.9586 22.5943 63.9158C22.5943 62.8731 22.4292 61.9548 22.099 61.1612C21.7746 60.3675 21.2851 59.7477 20.6305 59.3016C19.9758 58.8555 19.159 58.6296 18.18 58.6238C17.2009 58.6238 16.387 58.8468 15.7382 59.2929C15.0894 59.739 14.5998 60.3617 14.2696 61.1612C13.9452 61.9548 13.7801 62.8731 13.7743 63.9158C13.7685 64.9586 13.9278 65.8768 14.2523 66.6704C14.5825 67.4583 15.0749 68.0782 15.7295 68.53C16.3841 68.9761 17.2009 69.202 18.18 69.2078ZM28.6788 70.1724V58.8845H24.308V57.6593H34.3271V58.8845H29.9562V70.1724H28.6788ZM35.7206 70.1724V57.6593H43.5413V58.8845H36.998V63.2119H42.4985V64.4372H36.998V68.9471H43.5413V70.1724H35.7206ZM45.806 70.1724V57.6593H47.0834V68.9471H53.0271V70.1724H45.806ZM58.8534 70.4331C57.9786 70.4331 57.1908 70.2882 56.4898 69.9986C55.7946 69.7031 55.2182 69.286 54.7606 68.7473C54.3087 68.2085 54.0133 67.5684 53.8742 66.8268L55.1777 66.6096C55.3862 67.4206 55.8265 68.0579 56.4985 68.5213C57.1705 68.979 57.9729 69.2078 58.9055 69.2078C59.5196 69.2078 60.07 69.1122 60.5566 68.9211C61.0432 68.7241 61.4255 68.446 61.7036 68.0868C61.9817 67.7277 62.1207 67.3019 62.1207 66.8095C62.1207 66.4851 62.0628 66.2099 61.9469 65.9839C61.8311 65.7522 61.6775 65.5611 61.4864 65.4104C61.2952 65.2598 61.0866 65.1353 60.8607 65.0368C60.6348 64.9325 60.4146 64.8485 60.2003 64.7848L57.0286 63.8376C56.6462 63.7275 56.2929 63.5885 55.9684 63.4205C55.644 63.2467 55.3602 63.0411 55.1169 62.8035C54.8793 62.5602 54.694 62.2764 54.5607 61.9519C54.4275 61.6275 54.3609 61.2568 54.3609 60.8397C54.3609 60.1329 54.5462 59.5217 54.917 59.0062C55.2878 58.4906 55.7946 58.0937 56.4377 57.8157C57.0807 57.5376 57.8135 57.4015 58.6362 57.4073C59.4704 57.4073 60.2148 57.555 60.8694 57.8504C61.5298 58.1459 62.0744 58.5688 62.5031 59.1191C62.9318 59.6637 63.2156 60.3096 63.3546 61.0569L62.0164 61.3002C61.9295 60.7557 61.7297 60.2835 61.4169 59.8838C61.104 59.4841 60.7043 59.1771 60.2177 58.9627C59.7369 58.7426 59.2068 58.6296 58.6275 58.6238C58.0655 58.6238 57.5644 58.7194 57.1242 58.9106C56.6897 59.0959 56.345 59.3508 56.0901 59.6753C55.8352 59.9997 55.7078 60.3704 55.7078 60.7875C55.7078 61.2104 55.8236 61.5493 56.0553 61.8042C56.2929 62.0591 56.5825 62.259 56.9243 62.4038C57.2719 62.5486 57.6079 62.6674 57.9323 62.7601L60.3828 63.4813C60.6377 63.5508 60.936 63.6522 61.2778 63.7855C61.6254 63.9129 61.9614 64.0983 62.2858 64.3416C62.616 64.5791 62.8883 64.8919 63.1026 65.2801C63.317 65.6682 63.4242 66.1606 63.4242 66.7573C63.4242 67.3366 63.3083 67.8551 63.0766 68.3128C62.8506 68.7704 62.5291 69.1557 62.112 69.4685C61.7007 69.7813 61.217 70.0188 60.6609 70.1811C60.1105 70.3491 59.508 70.4331 58.8534 70.4331ZM1.39034 94.1724V81.6593H2.66772V94.1724H1.39034ZM5.27286 94.1724V81.6593H6.55892L13.4498 91.9131V81.6593H14.7359V94.1724H13.4498L6.55892 83.9099V94.1724H5.27286ZM20.4984 94.1724V82.8845H16.1275V81.6593H26.1466V82.8845H21.7757V94.1724H20.4984ZM27.5401 94.1724V81.6593H35.3608V82.8845H28.8175V87.2119H34.318V88.4372H28.8175V92.9471H35.3608V94.1724H27.5401ZM37.4517 94.1724V81.6593H42.2832C42.4048 81.6593 42.541 81.6651 42.6916 81.6766C42.848 81.6824 43.0044 81.6998 43.1608 81.7288C43.8155 81.8273 44.3687 82.0561 44.8206 82.4153C45.2782 82.7686 45.6229 83.2147 45.8546 83.7535C46.0921 84.2922 46.2109 84.8889 46.2109 85.5435C46.2109 86.4878 45.9618 87.3075 45.4636 88.0027C44.9654 88.6979 44.2528 89.1353 43.3259 89.3148L42.8828 89.4191H38.7291V94.1724H37.4517ZM45.0291 94.1724L42.5613 89.0802L43.7865 88.611L46.4977 94.1724H45.0291ZM38.7291 88.2026H42.2484C42.3527 88.2026 42.4744 88.1968 42.6134 88.1852C42.7524 88.1736 42.8886 88.1533 43.0218 88.1244C43.4505 88.0317 43.801 87.855 44.0733 87.5943C44.3513 87.3336 44.557 87.0237 44.6902 86.6645C44.8293 86.3053 44.8988 85.9317 44.8988 85.5435C44.8988 85.1554 44.8293 84.7817 44.6902 84.4226C44.557 84.0576 44.3513 83.7448 44.0733 83.4841C43.801 83.2234 43.4505 83.0467 43.0218 82.954C42.8886 82.9251 42.7524 82.9077 42.6134 82.9019C42.4744 82.8903 42.3527 82.8845 42.2484 82.8845H38.7291V88.2026ZM48.4156 94.1724V81.6593H49.7017L56.5926 91.9131V81.6593H57.8787V94.1724H56.5926L49.7017 83.9099V94.1724H48.4156ZM59.444 94.1724L63.7541 81.6593H65.4486L69.7587 94.1724H68.4291L64.3363 82.3718H64.8403L60.7735 94.1724H59.444ZM61.3644 91.1397V89.9405H67.8295V91.1397H61.3644ZM73.6207 94.1724V82.8845H69.2498V81.6593H79.2689V82.8845H74.898V94.1724H73.6207ZM80.8362 94.1724V81.6593H82.1136V94.1724H80.8362ZM89.7848 94.4331C88.5393 94.4331 87.4878 94.1579 86.6304 93.6075C85.773 93.0514 85.1242 92.2838 84.6839 91.3048C84.2437 90.3257 84.0235 89.1961 84.0235 87.9158C84.0235 86.6355 84.2437 85.5059 84.6839 84.5268C85.1242 83.5478 85.773 82.7831 86.6304 82.2328C87.4878 81.6766 88.5393 81.3986 89.7848 81.3986C91.0361 81.3986 92.0875 81.6766 92.9391 82.2328C93.7965 82.7831 94.4453 83.5478 94.8856 84.5268C95.3317 85.5059 95.5547 86.6355 95.5547 87.9158C95.5547 89.1961 95.3317 90.3257 94.8856 91.3048C94.4453 92.2838 93.7965 93.0514 92.9391 93.6075C92.0875 94.1579 91.0361 94.4331 89.7848 94.4331ZM89.7848 93.2078C90.7638 93.2078 91.5806 92.9848 92.2353 92.5387C92.8899 92.0926 93.3794 91.4728 93.7038 90.6791C94.034 89.8797 94.1991 88.9586 94.1991 87.9158C94.1991 86.8731 94.034 85.9548 93.7038 85.1612C93.3794 84.3675 92.8899 83.7477 92.2353 83.3016C91.5806 82.8555 90.7638 82.6296 89.7848 82.6238C88.8057 82.6238 87.9918 82.8468 87.343 83.2929C86.6942 83.739 86.2046 84.3617 85.8744 85.1612C85.55 85.9548 85.3849 86.8731 85.3791 87.9158C85.3733 88.9586 85.5326 89.8768 85.857 90.6704C86.1873 91.4583 86.6797 92.0782 87.3343 92.53C87.9889 92.9761 88.8057 93.202 89.7848 93.2078ZM97.2949 94.1724V81.6593H98.581L105.472 91.9131V81.6593H106.758V94.1724H105.472L98.581 83.9099V94.1724H97.2949ZM108.323 94.1724L112.633 81.6593H114.328L118.638 94.1724H117.308L113.216 82.3718H113.72L109.653 94.1724H108.323ZM110.244 91.1397V89.9405H116.709V91.1397H110.244ZM120.381 94.1724V81.6593H121.658V92.9471H127.602V94.1724H120.381Z" fill="#2F2616"/>
<path d="M128.443 4.95408C127.78 4.71101 126.643 4.23802 125.467 3.88984C124.607 3.63363 123.7 3.39714 122.82 3.41685C122.308 3.42998 121.749 3.91612 121.309 4.29714C120.889 4.66503 120.554 5.03291 120.041 4.50079C119.529 3.97524 118.386 3.66648 119.029 2.64823C120.527 0.256975 122.459 -0.485364 125.29 0.454057C126.216 0.762817 127.103 1.17012 128.036 1.4526C129.113 1.7745 130.073 1.52486 130.736 0.572305C131.242 -0.156895 131.722 -0.176603 132.326 0.440918C132.516 0.637999 132.884 0.690554 133.042 0.907344C133.246 1.18983 133.495 1.62341 133.416 1.89932C132.963 3.44969 130.71 4.96722 128.45 4.95408H128.443Z" fill="#2F2616"/>
<path d="M25.8164 22.5142C24.2923 22.9478 24.2923 24.2485 23.8258 25.1485C21.6777 29.2938 19.6346 33.4851 17.5587 37.6698C17.2565 38.2807 17.0397 38.9573 16.6652 39.5157C16.1988 40.2055 15.2922 40.0873 14.9178 39.3581C13.0718 35.7384 11.1995 32.1383 9.38635 28.5055C8.53233 26.7909 7.8097 25.0106 6.96225 23.2828C6.81772 22.9938 6.37757 22.8427 6.07538 22.6325C5.88487 22.9084 5.56954 23.1711 5.53013 23.4668C4.99144 27.5792 4.5053 31.6982 3.97318 35.8106C3.82209 36.9668 3.61187 38.1165 3.32282 39.2464C3.24398 39.5486 2.78413 39.923 2.4688 39.9625C-0.145815 40.2384 -0.204939 40.1201 0.162946 37.5384C0.872438 32.5653 1.53595 27.5858 2.21259 22.6062C2.66588 19.2886 3.08632 15.9711 3.57245 12.6601C3.61844 12.3448 4.05859 11.8127 4.22939 11.8455C4.66297 11.9244 5.22793 12.174 5.43159 12.5287C6.1148 13.7178 6.66006 14.9923 7.27758 16.2273C8.66372 19.0193 10.0696 21.8047 11.4557 24.6033C12.6907 27.0931 13.8929 29.596 15.1346 32.0858C15.2856 32.3814 15.5944 32.5982 15.8243 32.8544C16.1265 32.5653 16.5404 32.3288 16.7243 31.9741C17.7492 29.9376 18.7017 27.8682 19.7134 25.8186C20.7645 23.677 21.8813 21.5682 22.9193 19.42C24.0098 17.1733 25.0149 14.8872 26.1317 12.6536C26.3222 12.266 26.8675 12.0558 27.2485 11.7601C27.4916 12.1083 27.8989 12.4368 27.9514 12.8112C28.7266 18.0667 29.4492 23.3288 30.1981 28.5843C30.658 31.823 31.177 35.0551 31.6105 38.3004C31.8273 39.8968 31.6894 39.9887 30.0996 39.9953C28.2076 40.0019 28.293 39.9953 28.0499 38.1099C27.5572 34.3194 26.966 30.5485 26.4207 26.7646C26.2828 25.7923 26.1974 24.8135 26.0726 23.8346C26.02 23.4208 25.9215 23.0135 25.8229 22.5142H25.8164Z" fill="#2F2616"/>
<path d="M114.556 40.225C112.302 39.9754 112.21 39.8112 113.169 37.8535C114.779 34.5754 116.408 31.2972 117.978 27.9929C119.469 24.8527 120.888 21.6797 122.36 18.5264C123.293 16.5227 124.259 14.5322 125.231 12.5483C125.737 11.5103 126.663 11.4117 127.208 12.4037C127.99 13.8293 128.621 15.3337 129.33 16.8052C130.112 18.4344 130.92 20.0505 131.682 21.6928C133.016 24.5833 134.303 27.5067 135.65 30.3907C136.905 33.0841 138.205 35.7579 139.513 38.425C140.137 39.6995 140.018 39.9623 138.632 39.9754C138.448 39.9754 138.264 39.9557 138.087 39.9754C136.701 40.179 135.945 39.6601 135.407 38.2805C134.513 36.0272 133.357 33.8724 132.234 31.7243C132.05 31.3695 131.452 31.0213 131.045 31.0148C127.951 30.9556 124.85 31.0016 121.756 30.9622C120.14 30.9425 120.028 32.3286 119.529 33.2878C118.491 35.2783 117.656 37.3805 116.546 39.325C116.257 39.8309 115.252 39.9294 114.569 40.2119L114.556 40.225ZM126.229 27.4936C126.229 27.4936 126.229 27.4673 126.229 27.4542C127.103 27.4542 127.977 27.5001 128.851 27.441C129.823 27.3753 130.092 26.9352 129.705 26.0812C128.824 24.176 127.937 22.2709 127.011 20.3855C126.624 19.5906 126.105 19.5709 125.717 20.333C124.738 22.2644 123.779 24.2155 122.859 26.1797C122.505 26.9418 122.872 27.4607 123.72 27.487C124.554 27.5133 125.395 27.487 126.229 27.487V27.4936Z" fill="#2F2616"/>
<path d="M44.2106 25.9038C44.2106 21.6731 44.2106 17.4424 44.2106 13.2118C44.2106 11.7402 44.3749 11.6154 45.8595 11.6154C50.307 11.6154 54.7545 11.5957 59.2019 11.6417C59.7603 11.6417 60.726 11.911 60.7852 12.2001C60.956 13.0541 60.8312 13.9869 60.6603 14.8607C60.6209 15.0512 59.9049 15.2023 59.5041 15.2023C56.2589 15.2286 53.0136 15.222 49.7683 15.222C47.8698 15.222 47.7647 15.3337 47.7647 17.1731C47.7647 18.5987 47.7581 20.0176 47.7581 21.4432C47.7581 22.6257 48.0537 22.941 49.2296 22.9476C52.5143 22.9607 55.7924 22.9344 59.0771 22.9936C59.6224 23.0067 60.5487 23.276 60.6275 23.5914C60.818 24.3534 60.7195 25.2469 60.5027 26.022C60.4304 26.2783 59.6421 26.4622 59.1822 26.4622C56.0815 26.495 52.9807 26.4753 49.8866 26.4753C47.8501 26.4753 47.7581 26.5739 47.7647 28.6564C47.7778 30.5878 47.7712 32.5257 47.7647 34.4571C47.7647 36.2309 47.9683 36.4411 49.7946 36.4411C52.8953 36.4411 55.9961 36.4214 59.0903 36.4674C59.6158 36.4739 60.5355 36.717 60.5815 36.9732C60.7326 37.8338 60.6603 38.7732 60.4633 39.6272C60.4107 39.844 59.5698 39.9754 59.0903 39.982C55.3326 40.0082 51.5815 39.9951 47.8238 39.9951C47.2391 39.9951 46.6544 39.9951 46.0763 39.9951C44.1909 40.0017 44.1909 40.0082 44.1975 38.1688C44.1975 34.0827 44.1975 29.9965 44.1975 25.9104L44.2106 25.9038Z" fill="#2F2616"/>
<path d="M73.1033 25.9039C73.1033 21.6404 73.1033 17.3769 73.1033 13.1134C73.1033 11.7929 73.3069 11.6024 74.6339 11.6024C76.7164 11.6024 76.7558 11.6418 76.7558 13.744C76.7558 20.0112 76.7558 26.2784 76.7493 32.5456C76.7493 33.3076 76.677 34.0763 76.6639 34.8383C76.6441 36.0142 77.1237 36.4938 78.3062 36.4938C80.7106 36.4938 83.115 36.4544 85.5194 36.5135C86.0712 36.5266 87.004 36.8025 87.0763 37.1047C87.2537 37.9128 87.096 38.8062 86.9646 39.6537C86.9449 39.7982 86.4128 39.9493 86.1172 39.9558C82.1099 39.9756 78.1025 39.9558 74.0952 39.9821C73.1033 39.9887 73.0967 39.3712 73.0967 38.6814C73.0967 34.4179 73.0967 30.1543 73.0967 25.8908L73.1033 25.9039Z" fill="#2F2616"/>
<path d="M97.9812 25.8842C97.9812 21.6206 98.0009 17.3571 97.9615 13.0936C97.9549 12.1148 98.3228 11.6615 99.2622 11.6286C99.6236 11.6155 99.9914 11.6155 100.353 11.6089C101.312 11.5958 101.713 12.0688 101.706 13.0345C101.68 18.0995 101.68 23.1644 101.673 28.2294C101.673 31.6915 101.64 35.1536 101.699 38.6156C101.719 39.6667 101.371 40.028 100.32 40.0083C97.9878 39.9623 97.9944 40.0018 98.0009 37.6959C98.0009 33.7608 98.0009 29.8258 98.0009 25.8842H97.9747H97.9812Z" fill="#2F2616"/>
</svg>
