<svg width="48" height="45" viewBox="0 0 48 45" fill="none" xmlns="http://www.w3.org/2000/svg">
<path d="M7.83644 1.88184C5.14303 1.88184 2.93848 4.0914 2.93848 6.79093V38.2091C2.93848 40.9086 5.14303 43.1182 7.83644 43.1182H39.1834C41.8768 43.1182 44.0813 40.9086 44.0813 38.2091V6.79093C44.0813 4.0914 41.8768 1.88184 39.1834 1.88184H7.83644ZM7.83644 3.84547H39.1834C40.8178 3.84547 42.1222 5.15278 42.1222 6.79093V38.2091C42.1222 39.8473 40.8178 41.1546 39.1834 41.1546H7.83644C6.202 41.1546 4.89766 39.8473 4.89766 38.2091V6.79093C4.89766 5.15278 6.202 3.84547 7.83644 3.84547ZM13.714 5.80911C14.1195 6.80369 16.067 11.0924 16.6528 12.6761V16.6091H18.6119V12.6818L21.5507 5.80911H19.1993L17.6324 9.73638L16.0654 5.80911H13.714ZM23.5099 8.75456C22.5244 8.75456 21.775 9.02487 21.2255 9.68269C20.8013 10.1687 20.573 10.9482 20.573 11.9762L20.5711 13.3952C20.5711 14.4173 20.7726 15.1241 21.1968 15.6062C21.7473 16.2611 22.639 16.6091 23.5099 16.6091C24.3808 16.6091 25.2888 16.2611 25.8403 15.6043C26.2576 15.1232 26.4487 14.4173 26.4487 13.3952V11.9704C26.4487 10.9415 26.2117 10.1687 25.7943 9.68269C25.2438 9.02487 24.3808 8.75456 23.5099 8.75456ZM27.4283 8.75456V14.4863C27.4283 15.1343 27.5245 15.5746 27.6617 15.8574C27.887 16.3218 28.3382 16.5597 28.9857 16.5803C29.8781 16.6098 30.5483 16.0298 31.3466 15.2591V16.6091H33.3058V8.75456H31.3466V14.0318C30.9009 14.561 30.388 15.0309 29.9844 15.0309C29.717 15.0309 29.4364 14.9076 29.3875 14.6455V8.75456H27.4283ZM23.5099 10.3443C24.0506 10.3443 24.4895 10.7934 24.4895 11.3472V14.1028C24.4895 14.6556 24.0506 15.1057 23.5099 15.1057C22.9692 15.1057 22.5303 14.6565 22.5303 14.1028V11.3472C22.5303 10.7944 22.9692 10.3443 23.5099 10.3443ZM23.5003 19.5546C23.5003 19.5546 16.9278 19.5549 12.5392 19.8691C11.9221 19.9378 10.5889 19.9477 9.39383 21.1749C8.45343 22.0979 8.15021 24.2182 8.15021 24.2182C8.15021 24.2182 7.83644 25.7209 7.83644 28.2049V30.531C7.83644 33.015 8.15021 34.5177 8.15021 34.5177C8.15021 34.5177 8.45343 36.6378 9.39383 37.5705C10.5889 38.788 12.1556 38.7488 12.8511 38.8764C15.3589 39.1121 23.5099 39.1909 23.5099 39.1909C23.5099 39.1909 30.092 39.181 34.4806 38.8668C35.0977 38.7981 36.4309 38.7882 37.626 37.561C38.5664 36.638 38.8696 34.5177 38.8696 34.5177C38.8696 34.5177 39.1834 33.015 39.1834 30.531V28.2049C39.1834 25.7209 38.8696 24.2182 38.8696 24.2182C38.8696 24.2182 38.5664 22.0979 37.626 21.1749C36.4309 19.9477 35.0977 19.9378 34.4806 19.8691C30.092 19.5549 23.5195 19.5546 23.5195 19.5546H23.5003ZM10.7752 23.4818H16.6528V25.4455H14.6936V35.2637H12.7344V25.4455H10.7752V23.4818ZM23.5099 23.4818H25.4691V27.783C26.2038 26.919 26.5948 26.4175 27.545 26.4273C28.2895 26.4371 28.8881 26.86 29.133 27.6258C29.2603 28.0382 29.3875 28.7747 29.3875 29.7467V32.4467C29.3777 33.3107 29.2888 33.6931 29.1713 34.1054C28.9264 34.8712 28.2895 35.2637 27.545 35.2637C26.8887 35.2637 26.0862 34.8022 25.4691 34.0364V35.2637H23.5099V23.4818ZM16.6528 26.4273H18.6119V33.1926C18.6609 33.4774 18.8662 33.5838 19.1209 33.5838C19.5127 33.5838 20.1401 33.1523 20.5711 32.5828V26.4273H22.5303V35.2637H20.5711V33.9194C19.7973 34.7638 18.8755 35.2637 18.1604 35.2637C17.5335 35.2637 17.094 34.9897 16.8785 34.4889C16.7512 34.1748 16.6528 33.702 16.6528 32.9951V26.4273ZM33.3345 26.4273C34.3043 26.4273 35.0783 26.7414 35.6171 27.3305C36.0187 27.7625 36.2446 28.4307 36.2446 29.3536V31.3364H32.3262V33.1044C32.3262 33.5561 32.767 33.929 33.3058 33.929C33.8446 33.929 34.2854 33.5561 34.2854 33.1044V32.3182H36.2446C36.2446 32.8189 36.1855 33.2407 36.1757 33.3978C36.1072 33.7415 35.9516 34.0568 35.7165 34.3317C35.1876 34.9601 34.3932 35.2637 33.3843 35.2637C32.3655 35.2637 31.6008 34.9687 31.0424 34.3796C30.631 33.9575 30.367 33.3099 30.367 32.3968V29.3919C30.367 28.469 30.6021 27.7625 31.0233 27.3305C31.5817 26.7414 32.3451 26.4273 33.3345 26.4273ZM33.3058 27.8502C32.767 27.8502 32.3262 28.2133 32.3262 28.6747V29.971H34.2854V28.6747C34.2854 28.2133 33.8446 27.8502 33.3058 27.8502ZM26.6649 28.1455C26.513 28.1455 26.2915 28.2219 26.0699 28.3372C25.959 28.3949 25.8476 28.462 25.7446 28.5347C25.6416 28.6075 25.5475 28.6863 25.4691 28.7649V33.0546C25.5475 33.1331 25.6416 33.2058 25.7446 33.2693C26.0536 33.4599 26.4371 33.5742 26.6649 33.5742C26.8632 33.5742 27.0186 33.5258 27.1375 33.4093C27.1771 33.3705 27.2134 33.3236 27.2446 33.2693C27.307 33.1607 27.352 33.0198 27.3824 32.8417C27.4127 32.6636 27.4283 32.4474 27.4283 32.1897V29.5012C27.4283 29.2435 27.4127 29.0284 27.3824 28.8531C27.3217 28.5024 27.2002 28.3056 27.0074 28.2126C26.9109 28.1661 26.7971 28.1455 26.6649 28.1455Z" fill="#2F2616"/>
</svg>
