<svg width="113" height="34" viewBox="0 0 113 34" fill="none" xmlns="http://www.w3.org/2000/svg">
<path d="M103.765 4.15459C103.229 3.95075 102.311 3.55409 101.361 3.2621C100.666 3.04724 99.9336 2.84891 99.2224 2.86544C98.8084 2.87646 98.3573 3.28414 98.0017 3.60367C97.6621 3.91219 97.3914 4.2207 96.9775 3.77446C96.5635 3.33372 95.64 3.07479 96.1601 2.22086C97.3702 0.215505 98.9305 -0.407036 101.218 0.380781C101.966 0.639714 102.683 0.981286 103.436 1.21818C104.307 1.48813 105.082 1.27878 105.618 0.479947C106.026 -0.131576 106.414 -0.148103 106.902 0.369763C107.056 0.535039 107.353 0.579113 107.48 0.760917C107.645 0.997813 107.847 1.36142 107.783 1.59281C107.417 2.89298 105.596 4.16561 103.771 4.15459H103.765Z" fill="#2F2616"/>
<path d="M20.8563 18.8808C19.625 19.2444 19.625 20.3352 19.2482 21.09C17.5128 24.5663 15.8622 28.0812 14.1851 31.5905C13.941 32.1029 13.7659 32.6703 13.4633 33.1386C13.0865 33.7171 12.3541 33.6179 12.0516 33.0064C10.5603 29.9708 9.04775 26.9518 7.58296 23.9052C6.89302 22.4673 6.30923 20.9743 5.6246 19.5253C5.50784 19.2829 5.15226 19.1562 4.90813 18.9799C4.75422 19.2113 4.49947 19.4317 4.46763 19.6796C4.03244 23.1284 3.6397 26.5826 3.20982 30.0314C3.08776 31.001 2.91792 31.9652 2.68441 32.9127C2.62072 33.1662 2.24922 33.4802 1.99447 33.5132C-0.1178 33.7446 -0.165565 33.6455 0.131639 31.4803C0.704818 27.3099 1.24085 23.1339 1.78749 18.9579C2.15369 16.1757 2.49335 13.3936 2.88608 10.6169C2.92323 10.3525 3.27881 9.90626 3.4168 9.9338C3.76708 9.99991 4.2235 10.2093 4.38802 10.5068C4.93997 11.5039 5.38047 12.5727 5.87935 13.6084C6.99917 15.9499 8.13491 18.2858 9.25473 20.6327C10.2525 22.7207 11.2237 24.8197 12.2268 26.9077C12.3488 27.1556 12.5983 27.3374 12.784 27.5523C13.0282 27.3099 13.3625 27.1115 13.5111 26.814C14.339 25.1062 15.1086 23.3708 15.9259 21.6519C16.775 19.8559 17.6773 18.0874 18.5158 16.2859C19.3968 14.4018 20.2088 12.4846 21.111 10.6114C21.2649 10.2864 21.7054 10.1101 22.0133 9.86218C22.2096 10.1542 22.5387 10.4296 22.5811 10.7437C23.2074 15.151 23.7912 19.5639 24.3962 23.9713C24.7677 26.6873 25.187 29.3979 25.5372 32.1194C25.7124 33.4581 25.6009 33.5353 24.3166 33.5408C22.7881 33.5463 22.8571 33.5408 22.6607 31.9596C22.2627 28.7808 21.7851 25.6185 21.3446 22.4452C21.2331 21.6299 21.1641 20.809 21.0633 19.9881C21.0208 19.641 20.9412 19.2995 20.8616 18.8808H20.8563Z" fill="#2F2616"/>
<path d="M92.546 33.7336C90.7257 33.5243 90.6514 33.3865 91.4262 31.7448C92.7265 28.9957 94.0427 26.2466 95.3111 23.4754C96.5158 20.842 97.6622 18.1811 98.851 15.5367C99.6046 13.8564 100.385 12.1871 101.17 10.5233C101.579 9.65283 102.327 9.57019 102.768 10.4021C103.399 11.5976 103.909 12.8592 104.482 14.0933C105.114 15.4595 105.766 16.8148 106.382 18.1921C107.459 20.6162 108.5 23.0678 109.587 25.4863C110.601 27.7451 111.652 29.9873 112.708 32.2241C113.212 33.2929 113.117 33.5132 111.997 33.5243C111.848 33.5243 111.7 33.5077 111.556 33.5243C110.437 33.695 109.826 33.2598 109.391 32.1029C108.669 30.2132 107.735 28.4062 106.828 26.6047C106.679 26.3072 106.196 26.0152 105.867 26.0097C103.367 25.9601 100.862 25.9987 98.3627 25.9656C97.0572 25.9491 96.967 27.1115 96.5636 27.9159C95.7251 29.5852 95.051 31.3481 94.1541 32.9788C93.9206 33.4031 93.1086 33.4857 92.5567 33.7226L92.546 33.7336ZM101.977 23.0567C101.977 23.0567 101.977 23.0347 101.977 23.0237C102.683 23.0237 103.389 23.0623 104.095 23.0127C104.88 22.9576 105.098 22.5885 104.784 21.8723C104.073 20.2746 103.357 18.6769 102.609 17.0958C102.295 16.4292 101.876 16.4126 101.563 17.0517C100.772 18.6714 99.9974 20.3077 99.2544 21.9549C98.9678 22.594 99.265 23.0292 99.9496 23.0512C100.624 23.0733 101.303 23.0512 101.977 23.0512V23.0567Z" fill="#2F2616"/>
<path d="M35.7168 21.7235C35.7168 18.1756 35.7168 14.6276 35.7168 11.0797C35.7168 9.84562 35.8494 9.74095 37.0489 9.74095C40.6418 9.74095 44.2348 9.72442 47.8278 9.76298C48.2789 9.76298 49.0591 9.98886 49.1068 10.2313C49.2448 10.9475 49.144 11.7298 49.006 12.4625C48.9742 12.6223 48.3957 12.749 48.0719 12.749C45.4502 12.771 42.8284 12.7655 40.2067 12.7655C38.6729 12.7655 38.588 12.8592 38.588 14.4017C38.588 15.5972 38.5826 16.7872 38.5826 17.9827C38.5826 18.9744 38.8215 19.2388 39.7715 19.2443C42.4251 19.2554 45.0734 19.2333 47.727 19.2829C48.1675 19.2939 48.9158 19.5198 48.9795 19.7842C49.1334 20.4233 49.0538 21.1726 48.8786 21.8227C48.8203 22.0375 48.1834 22.1918 47.8119 22.1918C45.3069 22.2193 42.8019 22.2028 40.3022 22.2028C38.657 22.2028 38.5826 22.2854 38.588 24.0318C38.5986 25.6516 38.5933 27.2768 38.588 28.8965C38.588 30.384 38.7525 30.5603 40.2279 30.5603C42.7329 30.5603 45.2379 30.5437 47.7376 30.5823C48.1622 30.5878 48.9052 30.7917 48.9423 31.0065C49.0644 31.7282 49.006 32.516 48.8468 33.2322C48.8043 33.414 48.125 33.5242 47.7376 33.5297C44.7019 33.5518 41.6714 33.5408 38.6357 33.5408C38.1634 33.5408 37.691 33.5408 37.224 33.5408C35.7008 33.5463 35.7008 33.5518 35.7061 32.0092C35.7061 28.5825 35.7061 25.1557 35.7061 21.729L35.7168 21.7235Z" fill="#2F2616"/>
<path d="M59.0576 21.7235C59.0576 18.1481 59.0576 14.5726 59.0576 10.9971C59.0576 9.88975 59.2221 9.72998 60.2941 9.72998C61.9765 9.72998 62.0084 9.76304 62.0084 11.526C62.0084 16.7818 62.0084 22.0376 62.0031 27.2934C62.0031 27.9324 61.9447 28.577 61.9341 29.2161C61.9181 30.2022 62.3056 30.6044 63.2609 30.6044C65.2033 30.6044 67.1457 30.5713 69.0882 30.6209C69.534 30.6319 70.2876 30.8633 70.346 31.1167C70.4893 31.7944 70.3619 32.5436 70.2558 33.2543C70.2398 33.3755 69.81 33.5022 69.5711 33.5077C66.3337 33.5243 63.0963 33.5077 59.8589 33.5298C59.0576 33.5353 59.0522 33.0174 59.0522 32.439C59.0522 28.8635 59.0522 25.288 59.0522 21.7125L59.0576 21.7235Z" fill="#2F2616"/>
<path d="M79.1561 21.707C79.1561 18.1315 79.172 14.556 79.1402 10.9805C79.1349 10.1597 79.4321 9.77953 80.191 9.75198C80.4829 9.74096 80.7801 9.74096 81.072 9.73545C81.8469 9.72443 82.1706 10.1211 82.1653 10.931C82.1441 15.1786 82.1441 19.4262 82.1388 23.6738C82.1388 26.5771 82.1122 29.4805 82.16 32.3838C82.1759 33.2653 81.8946 33.5683 81.0455 33.5518C79.1614 33.5132 79.1667 33.5463 79.172 31.6125C79.172 28.3125 79.172 25.0125 79.172 21.707H79.1508H79.1561Z" fill="#2F2616"/>
</svg>
